<svg width="243" height="225" viewBox="0 0 243 225" fill="none" xmlns="http://www.w3.org/2000/svg">
<g id="coding">
<path id="Vector" d="M90.7936 224.843C140.712 224.843 181.179 221.539 181.179 217.464C181.179 213.388 140.712 210.085 90.7936 210.085C40.8749 210.085 0.407837 213.388 0.407837 217.464C0.407837 221.539 40.8749 224.843 90.7936 224.843Z" fill="#E6E7E8"/>
<g id="codeScreen">
<path id="Vector_2" d="M241.592 148.19H177.322V200.554H241.592V148.19Z" fill="white"/>
</g>
<path id="Vector_3" d="M241.592 201.072H177.322C177.188 201.072 177.059 201.018 176.963 200.923C176.868 200.828 176.815 200.699 176.815 200.564V148.19C176.815 148.055 176.868 147.926 176.963 147.831C177.059 147.736 177.188 147.683 177.322 147.683H241.592C241.726 147.685 241.853 147.739 241.948 147.834C242.043 147.929 242.097 148.056 242.1 148.19V200.564C242.097 200.698 242.043 200.825 241.948 200.92C241.853 201.015 241.726 201.069 241.592 201.072V201.072ZM177.83 200.057H241.085V148.698H177.84L177.83 200.057Z" fill="#D1D3D4"/>
<path id="Vector_4" d="M241.592 155.427H177.322C177.188 155.427 177.059 155.374 176.963 155.278C176.868 155.183 176.815 155.054 176.815 154.919C176.815 154.785 176.868 154.656 176.963 154.561C177.059 154.465 177.188 154.412 177.322 154.412H241.592C241.727 154.412 241.856 154.465 241.951 154.561C242.046 154.656 242.1 154.785 242.1 154.919C242.097 155.053 242.043 155.181 241.948 155.275C241.853 155.37 241.726 155.424 241.592 155.427V155.427Z" fill="#D1D3D4"/>
<path id="Vector_5" d="M64.5051 50.3542C63.119 50.4474 61.7359 50.1322 60.5271 49.4475C59.3182 48.7629 58.3366 47.7389 57.7037 46.5022C57.0708 45.2655 56.8143 43.8703 56.966 42.4894C57.1177 41.1084 57.6709 39.8023 58.5572 38.7324C54.6799 36.946 52.6296 32.3582 52.9138 28.1054C53.198 23.8525 55.4411 19.9854 58.2425 16.7171C60.5466 14.0476 63.4393 11.6421 66.9005 10.9823C67.5556 10.9171 68.1944 10.7385 68.7884 10.4545C69.2558 10.1258 69.6613 9.71684 69.9861 9.2467C72.5134 6.019 75.6295 3.0552 79.5271 1.756C83.4247 0.456798 88.1952 1.19775 90.8037 4.3747C92.1077 3.24271 93.7246 2.53332 95.4405 2.34039C97.1564 2.14747 98.8905 2.4801 100.413 3.29428C101.936 4.10846 103.176 5.36581 103.968 6.89994C104.761 8.43408 105.069 10.1727 104.851 11.8857C107.597 12.2911 110.172 13.4664 112.278 15.2754C114.383 17.0844 115.933 19.453 116.747 22.1067C118.199 27.4456 115.732 33.7183 110.809 36.2457C110.241 36.54 109.561 36.9257 109.581 37.555C109.637 37.9349 109.807 38.2888 110.068 38.57C111.652 40.8335 110.86 44.1119 109.053 46.1622C107.247 48.2125 104.547 49.2986 101.948 50.3339C102.526 50.9135 102.912 51.6572 103.052 52.4637C103.191 53.2702 103.079 54.1001 102.73 54.8405C101.977 56.3226 100.805 57.5508 99.3602 58.3727C93.7168 62.0165 86.7336 60.8797 80.4101 61.0117C74.5739 61.1335 68.7782 57.4084 64.9111 53.186C64.16 52.3842 63.5611 50.9226 64.5051 50.3542Z" fill="white"/>
<path id="Vector_6" d="M87.4035 61.5902C86.3885 61.5902 85.3735 61.5902 84.4397 61.5902C83.1202 61.5902 81.7398 61.5293 80.4406 61.5902C75.1423 61.6816 69.2756 58.7076 64.5457 53.6022C64.2128 53.2684 63.9513 52.8704 63.7768 52.4325C63.6023 51.9946 63.5186 51.5258 63.5307 51.0545C63.525 51.0175 63.525 50.9799 63.5307 50.9429C62.1642 50.8772 60.841 50.4426 59.7017 49.6851C58.5624 48.9276 57.6497 47.8756 57.0604 46.6409C56.4712 45.4062 56.2275 44.035 56.3552 42.6728C56.4829 41.3107 56.9773 40.0086 57.7858 38.905C54.284 36.9765 52.1018 32.6221 52.4063 28.0749C52.66 24.1875 54.4972 20.2594 57.8568 16.3821C60.78 13.0123 63.7032 11.0838 66.8091 10.485L67.1542 10.4241C67.6426 10.4049 68.1181 10.2627 68.5369 10.0108C68.9556 9.75883 69.304 9.40524 69.5496 8.98279C72.7367 4.92279 75.934 2.42589 79.3647 1.27894C83.5972 -0.131908 88.2358 0.85264 90.8646 3.66419C92.2482 2.59603 93.9116 1.95168 95.6537 1.80911C97.3957 1.66654 99.1418 2.03185 100.681 2.86084C102.219 3.68984 103.485 4.947 104.324 6.48021C105.164 8.01343 105.541 9.75701 105.41 11.5C108.152 11.9956 110.706 13.2344 112.793 15.0814C114.88 16.9285 116.419 19.3129 117.244 21.9748C118.787 27.6486 116.057 34.1548 111.043 36.7024C110.535 36.9562 110.079 37.2404 110.089 37.5449C110.139 37.7555 110.24 37.9506 110.383 38.1133L110.474 38.2452C112.281 40.803 111.256 44.386 109.378 46.4566C107.521 48.2796 105.281 49.6665 102.821 50.5166C103.266 51.1816 103.534 51.9485 103.602 52.7455C103.669 53.5426 103.533 54.3437 103.207 55.0739C102.43 56.6387 101.204 57.9358 99.685 58.799C95.9193 61.235 91.6563 61.5902 87.4035 61.5902ZM81.5672 60.494C82.5315 60.494 83.5059 60.494 84.46 60.494C89.535 60.5955 94.7622 60.7072 99.0963 57.9058C100.462 57.1449 101.569 55.9924 102.273 54.5969C102.588 53.9503 102.694 53.2217 102.576 52.5123C102.457 51.8028 102.121 51.1479 101.613 50.6384C101.547 50.5819 101.496 50.5093 101.466 50.4275C101.436 50.3458 101.427 50.2576 101.441 50.1715C101.455 50.0841 101.492 50.0018 101.547 49.9325C101.602 49.8632 101.674 49.8092 101.756 49.7756C104.131 48.8215 106.831 47.7456 108.627 45.7156C110.241 43.9394 111.144 40.8944 109.642 38.7629L109.551 38.6512C109.274 38.3322 109.104 37.9348 109.064 37.5144C109.064 36.4994 110.028 36.0122 110.566 35.7382C115.174 33.3631 117.671 27.4152 116.25 22.1778C115.447 19.6324 113.943 17.3646 111.911 15.6341C109.879 13.9037 107.401 12.7805 104.76 12.3932C104.629 12.3731 104.51 12.3023 104.431 12.196C104.351 12.0898 104.316 11.9565 104.334 11.8248C104.533 10.2169 104.242 8.58621 103.498 7.14663C102.755 5.70705 101.594 4.52574 100.167 3.75758C98.7406 2.98942 97.1152 2.67028 95.5041 2.84198C93.893 3.01369 92.3713 3.66823 91.1387 4.71979C91.0877 4.76465 91.0281 4.7986 90.9635 4.81955C90.8989 4.8405 90.8307 4.848 90.7631 4.84159C90.6961 4.83658 90.6309 4.81777 90.5715 4.78633C90.5121 4.75488 90.4598 4.7115 90.418 4.65889C88.1343 1.87779 83.719 0.86279 79.6996 2.21274C76.4618 3.28864 73.4168 5.68404 70.3921 9.53089C70.0338 10.0516 69.5831 10.5022 69.0624 10.8605C68.5266 11.1458 67.9407 11.325 67.3369 11.3883L67.0121 11.4492C64.1397 12.0075 61.3992 13.8243 58.6282 17.0114C55.4208 20.7162 53.675 24.4514 53.4314 28.1054C53.1371 32.4902 55.3295 36.6517 58.7805 38.2554C58.8506 38.288 58.9126 38.336 58.9618 38.3957C59.011 38.4554 59.0461 38.5254 59.0647 38.6005C59.0809 38.6769 59.0793 38.7561 59.0599 38.8318C59.0406 38.9075 59.004 38.9777 58.953 39.0369C58.116 40.026 57.5904 41.2406 57.4421 42.5279C57.2939 43.8151 57.5298 45.1174 58.1201 46.2708C58.7104 47.4243 59.6287 48.3773 60.7594 49.01C61.8902 49.6427 63.1828 49.9267 64.4746 49.8264C64.5903 49.8146 64.7064 49.8437 64.8028 49.9086C64.8992 49.9735 64.9698 50.0701 65.0024 50.1816C65.0369 50.2906 65.0336 50.408 64.9931 50.5148C64.9526 50.6216 64.8772 50.7117 64.7791 50.7703C64.7164 50.8051 64.6633 50.8548 64.6243 50.915C64.5854 50.9751 64.5619 51.044 64.5558 51.1154C64.5731 51.7632 64.8426 52.3787 65.3069 52.8308C69.7932 57.7231 75.4569 60.5854 80.4203 60.4839L81.5672 60.494Z" fill="#231F20"/>
<g id="rightFoot">
<path id="Vector_7" d="M156.434 220.874C152.965 220.861 149.506 220.521 146.101 219.859C139.052 218.409 132.251 215.94 125.913 212.531C125.854 212.495 125.803 212.448 125.763 212.392C125.722 212.337 125.694 212.273 125.679 212.206C125.667 212.14 125.67 212.072 125.688 212.007C125.705 211.942 125.737 211.882 125.781 211.831L136.641 198.696C136.681 198.643 136.733 198.599 136.793 198.569C136.853 198.539 136.919 198.524 136.986 198.524H137.088C139.92 198.524 156.84 200.452 164.96 204.482L166.787 205.385C173.293 208.572 175.049 209.445 173.425 214.825C172.4 218.235 165.721 220.874 156.434 220.874ZM126.857 211.993C132.968 215.22 139.505 217.567 146.274 218.966C157.185 220.996 171.029 219.555 172.542 214.561C173.932 209.933 172.927 209.435 166.381 206.228L164.554 205.324C156.809 201.478 140.244 199.519 137.21 199.458L126.857 211.993Z" fill="#231F20"/>
</g>
<path id="Vector_8" d="M139.321 198.95C140.853 199.326 142.187 200.266 143.055 201.584C143.923 202.902 144.26 204.499 144 206.055C143.239 211.831 131.028 212.074 130.328 212.145C129.627 212.216 139.321 198.95 139.321 198.95Z" fill="white"/>
<path id="Vector_9" d="M130.328 212.47C130.237 212.467 130.149 212.442 130.071 212.395C129.993 212.349 129.927 212.284 129.881 212.206C129.729 211.902 129.485 211.435 138.945 198.636C138.999 198.561 139.075 198.505 139.162 198.474C139.249 198.443 139.343 198.439 139.432 198.463C139.483 198.463 145.269 199.914 144.507 206.035C143.736 211.912 132.612 212.429 130.389 212.47H130.328ZM139.463 199.448C136.489 203.508 132.063 209.598 130.957 211.526C133.738 211.394 142.883 210.613 143.503 205.913C143.741 204.538 143.465 203.123 142.728 201.938C141.99 200.753 140.843 199.881 139.503 199.488L139.463 199.448Z" fill="#231F20"/>
<g id="leftFoot">
<path id="Vector_10" d="M14.7498 220.976C11.1669 220.976 8.86281 219.778 7.17791 215.819C5.49301 211.861 5.23927 208.461 6.46742 205.832C7.60422 203.396 9.99962 201.599 13.5724 200.513C20.2511 198.483 40.541 196.392 44.6619 200.28C48.6102 203.995 49.2395 211.81 49.27 212.135C49.2746 212.221 49.2564 212.307 49.2172 212.383C49.178 212.46 49.1191 212.525 49.0467 212.571L48.9046 212.693C44.7329 216.489 36.7246 218.144 30.7158 218.854C27.5997 219.23 24.9201 219.666 22.5958 220.052C20.0068 220.553 17.3843 220.862 14.7498 220.976V220.976ZM33.4867 198.991C26.534 198.991 18.1095 200.097 13.8668 201.396C10.5376 202.411 8.32486 204.035 7.30986 206.228C6.19336 208.603 6.43696 211.709 8.03051 215.454C10.4158 221.087 13.9378 220.529 22.4232 219.139C24.7983 218.753 27.4982 218.316 30.6244 217.941C36.4911 217.24 44.3168 215.637 48.3057 212.003C48.1636 210.673 47.2907 204.106 44.0123 200.98C42.5507 199.539 38.379 198.991 33.4867 198.991Z" fill="#231F20"/>
</g>
<path id="Vector_11" d="M53.4416 209.07C53.4416 209.07 46.8745 214.551 42.4999 213.901C38.1252 213.252 32.0758 210.856 34.5118 206.136C36.9478 201.417 52.6296 198.575 52.6296 198.575L53.4416 209.07Z" fill="white"/>
<path id="Vector_12" d="M43.251 214.419C42.9758 214.419 42.701 214.399 42.4289 214.358C39.1504 213.871 35.1919 212.47 33.9232 209.983C33.6099 209.346 33.4616 208.641 33.4917 207.931C33.5219 207.222 33.7296 206.531 34.0957 205.923C36.6129 201.031 51.8988 198.24 52.5484 198.118C52.6123 198.107 52.6778 198.109 52.7407 198.125C52.8037 198.141 52.8626 198.169 52.9138 198.209C52.9652 198.25 53.0079 198.301 53.0393 198.358C53.0707 198.416 53.0902 198.479 53.0965 198.544L53.9085 209.029C53.9141 209.103 53.9024 209.178 53.8742 209.246C53.846 209.315 53.8021 209.376 53.7461 209.425C53.4822 209.638 47.7069 214.419 43.251 214.419ZM52.2135 199.133C49.5237 199.661 36.9885 202.33 34.9585 206.35C34.659 206.827 34.4852 207.372 34.4533 207.935C34.4213 208.497 34.5323 209.059 34.7758 209.567C35.8923 211.729 39.5463 212.988 42.6014 213.444C46.3265 214.003 51.9191 209.719 52.995 208.867L52.2135 199.133Z" fill="#231F20"/>
<path id="Vector_13" d="M132.327 163.029C132.327 163.029 125.405 190.028 100.142 195.185C74.8784 200.341 61.8052 198.981 52.8529 181.929C43.9006 164.877 49.8079 154.442 49.8079 154.442L129.536 152.859L132.327 163.029Z" fill="#231F20"/>
<path id="Vector_14" d="M79.3038 198.341C67.1238 198.341 58.6689 194.099 52.3962 182.162C43.4236 165.059 49.138 154.625 49.3512 154.189C49.3955 154.112 49.459 154.048 49.5356 154.004C49.6122 153.959 49.699 153.935 49.7876 153.935L129.516 152.352C129.631 152.346 129.744 152.38 129.837 152.448C129.929 152.517 129.995 152.615 130.023 152.727L132.784 162.877C132.804 162.964 132.804 163.054 132.784 163.141C132.713 163.415 125.496 190.546 100.203 195.672C92.2146 197.326 85.3025 198.341 79.3038 198.341ZM50.1429 154.94C49.3512 156.615 45.3521 166.541 53.2995 181.695C62.3838 198.95 75.6295 199.681 99.9895 194.687C123.771 189.835 131.191 165.019 131.749 163.029L129.12 153.377L50.1429 154.94Z" fill="#231F20"/>
<path id="Vector_15" d="M43.86 163.273C43.86 163.273 30.7969 121.049 32.5123 94.5879C34.2276 68.1269 44.063 67.1829 57.4813 65.6909C63.4393 65.021 95.1784 60.3215 107.064 74.3082C118.95 88.2949 139.869 153.803 139.869 153.803L43.86 163.273Z" fill="#844ADB"/>
<path id="Vector_16" d="M91.0068 65.7619L88.9768 79.8907C88.9768 79.8907 84.5311 87.1886 75.6295 83.494C66.728 79.7994 66.5554 72.9887 66.5554 72.9887L70.7778 46.8829C70.7778 46.8829 80.1666 38.4584 84.1149 22.3605C84.1149 22.3605 91.9812 36.0833 103.4 39.1689C103.4 39.1689 102.639 50.5673 100.599 57.6317C98.5685 64.4627 91.1489 65.6807 91.0068 65.7619Z" fill="white"/>
<path id="Vector_17" d="M80.4 85.0367C78.6736 85.0159 76.9688 84.6501 75.3859 83.9608C66.2509 80.185 66.0073 73.2932 65.9971 72.9988L70.25 46.8017C70.2706 46.6856 70.3275 46.579 70.4124 46.4972C70.5037 46.416 79.7301 37.9915 83.6074 22.2387C83.6352 22.142 83.6902 22.0552 83.7657 21.9887C83.8412 21.9221 83.9342 21.8786 84.0337 21.8631C84.1329 21.8491 84.234 21.8648 84.3243 21.9081C84.4146 21.9515 84.4901 22.0206 84.5412 22.1067C84.6224 22.2488 92.448 35.6874 103.501 38.6715C103.616 38.702 103.716 38.7714 103.784 38.8677C103.853 38.9641 103.886 39.0814 103.877 39.1993C103.877 39.311 103.085 50.7399 101.055 57.7738C99.3805 63.5695 93.9502 65.5589 91.4736 66.1679L89.4436 79.9617C89.4342 80.029 89.4136 80.0942 89.3827 80.1546C88.3825 81.6249 87.0455 82.8351 85.483 83.6843C83.9206 84.5335 82.1779 84.9972 80.4 85.0367V85.0367ZM71.265 47.1265L67.0629 73.0699C67.0629 73.2323 67.3674 79.505 75.8325 83.0271C83.7393 86.3055 88.0125 80.4692 88.4997 79.708L90.5297 65.6908C90.5391 65.6139 90.5671 65.5404 90.6114 65.4768C90.6556 65.4131 90.7146 65.3612 90.7834 65.3254C90.8769 65.2712 90.9806 65.2366 91.0879 65.2239C93.2702 64.7063 98.5279 62.9097 100.091 57.4896C101.877 51.3083 102.689 41.6455 102.842 39.5444C93.3006 36.743 86.3783 26.9077 84.3077 23.6495C80.4507 37.9407 72.3612 46.01 71.265 47.1265Z" fill="#231F20"/>
<path id="Vector_18" d="M76.2486 47.2787C76.1347 45.9582 75.593 44.711 74.7058 43.7262C73.8433 42.8416 72.8336 42.1135 71.7217 41.5744C71.1451 41.2179 70.4971 40.9926 69.8237 40.9147C69.3472 40.9194 68.8758 41.0123 68.4331 41.1887C67.3524 41.5335 66.4307 42.2535 65.8347 43.2187C65.4424 44.0376 65.2576 44.9404 65.2968 45.8476C65.2567 46.8293 65.3454 47.8121 65.5607 48.7708C65.7991 49.728 66.2262 50.628 66.817 51.418C67.4078 52.208 68.1504 52.8721 69.0013 53.3712C69.8522 53.8704 70.7941 54.1946 71.772 54.3249C72.7498 54.4552 73.7438 54.389 74.6957 54.13" fill="white"/>
<path id="Vector_19" d="M72.7672 54.8506C71.0009 54.8523 69.2847 54.2639 67.8909 53.179C66.497 52.0941 65.5054 50.5748 65.0735 48.8621C64.8381 47.8652 64.7425 46.8404 64.7893 45.8171C64.7535 44.8286 64.959 43.8461 65.3882 42.9548C66.0348 41.8937 67.039 41.0983 68.22 40.7117C68.7251 40.5154 69.2615 40.4122 69.8034 40.4072C70.5554 40.4864 71.2801 40.7326 71.9247 41.1278C73.0852 41.6943 74.1393 42.4566 75.0408 43.3811C76.0035 44.4506 76.5915 45.8046 76.7155 47.2381C76.7241 47.3722 76.6801 47.5044 76.593 47.6067C76.5059 47.7089 76.3824 47.7733 76.2486 47.7862C76.1152 47.7923 75.9844 47.7474 75.8826 47.6608C75.7809 47.5741 75.7158 47.4521 75.7005 47.3193C75.6009 46.1117 75.1131 44.9687 74.31 44.0612C73.485 43.2233 72.5197 42.5363 71.4578 42.0312C70.9516 41.7067 70.3796 41.4987 69.7831 41.4222C69.3719 41.4256 68.9653 41.5083 68.5854 41.6658C67.6267 41.9618 66.8012 42.5827 66.2509 43.4217C65.9062 44.1715 65.7461 44.9928 65.784 45.8171C65.7353 46.7549 65.8208 47.6948 66.0378 48.6084C66.2611 49.4969 66.6588 50.3322 67.2077 51.0656C67.7567 51.7991 68.446 52.416 69.2356 52.8807C70.0251 53.3454 70.8992 53.6485 71.8069 53.7723C72.7147 53.8962 73.638 53.8383 74.5232 53.6022C74.6523 53.568 74.7898 53.586 74.9057 53.6526C75.0217 53.7191 75.1067 53.8286 75.1423 53.9574C75.1591 54.0221 75.1629 54.0894 75.1536 54.1556C75.1443 54.2217 75.1221 54.2854 75.0881 54.3429C75.0542 54.4004 75.0092 54.4506 74.9558 54.4908C74.9024 54.5309 74.8416 54.56 74.7769 54.5766C74.1223 54.7574 73.4463 54.8496 72.7672 54.8506V54.8506Z" fill="#231F20"/>
<path id="Vector_20" d="M89.0072 43.2492C89.0072 43.2492 92.9962 51.1155 91.6868 52.2421C90.3775 53.3688 87.231 52.1305 87.231 52.1305" fill="white"/>
<path id="Vector_21" d="M90.0526 53.2267C89.0099 53.1945 87.9802 52.9851 87.0076 52.6075C86.9456 52.5829 86.8891 52.5463 86.8412 52.4998C86.7933 52.4533 86.7551 52.3978 86.7287 52.3366C86.7023 52.2753 86.6883 52.2094 86.6874 52.1427C86.6865 52.076 86.6987 52.0097 86.7234 51.9477C86.7753 51.8242 86.873 51.7256 86.996 51.6726C87.119 51.6196 87.2578 51.6163 87.3832 51.6636C88.1241 51.9478 90.4282 52.6075 91.3112 51.8564C91.8492 51.4098 90.5094 47.4107 88.52 43.4725C88.4888 43.4134 88.4698 43.3487 88.4642 43.2821C88.4586 43.2155 88.4664 43.1485 88.4872 43.0851C88.5081 43.0216 88.5415 42.963 88.5855 42.9127C88.6295 42.8624 88.6831 42.8215 88.7433 42.7925C88.8636 42.7349 89.0014 42.726 89.1281 42.7676C89.2548 42.8092 89.3606 42.8981 89.4233 43.0158C90.6718 45.4924 93.4326 51.3793 91.9811 52.6278C91.4251 53.041 90.7449 53.2522 90.0526 53.2267V53.2267Z" fill="#231F20"/>
<g id="rightEye">
<path id="Vector_22" d="M84.052 41.4712C84.1285 40.5326 83.647 39.7273 82.9766 39.6727C82.3061 39.618 81.7006 40.3347 81.6241 41.2733C81.5476 42.2119 82.0291 43.0172 82.6995 43.0718C83.37 43.1265 83.9755 42.4098 84.052 41.4712Z" fill="#231F20"/>
</g>
<g id="leftEye">
<path id="Vector_23" d="M96.6269 43.2087C96.6968 42.2695 96.2097 41.4677 95.5389 41.4177C94.8681 41.3678 94.2675 42.0886 94.1976 43.0277C94.1276 43.9669 94.6147 44.7687 95.2856 44.8187C95.9564 44.8687 96.5569 44.1479 96.6269 43.2087Z" fill="#231F20"/>
</g>
<g id="mouth">
<path id="Vector_24" d="M87.9719 59.5197C86.4198 59.5469 84.8842 59.1987 83.4957 58.5047C81.0699 57.2359 79.5169 54.8101 78.8775 51.2982C78.8658 51.2321 78.8674 51.1645 78.882 51.0991C78.8967 51.0337 78.9241 50.9718 78.9628 50.9171C79.0015 50.8623 79.0507 50.8158 79.1075 50.7802C79.1642 50.7445 79.2275 50.7205 79.2936 50.7095C79.4251 50.6884 79.5597 50.7188 79.6693 50.7945C79.779 50.8701 79.8553 50.985 79.8823 51.1155C80.4507 54.3026 81.8311 56.4848 83.9423 57.6013C88.2053 59.8343 94.204 57.1344 94.2649 57.104C94.3874 57.049 94.5267 57.0449 94.6522 57.0925C94.7778 57.14 94.8794 57.2354 94.9348 57.3577C94.9634 57.4182 94.9795 57.4837 94.9821 57.5506C94.9848 57.6174 94.974 57.6841 94.9503 57.7466C94.9266 57.8091 94.8906 57.8663 94.8443 57.9145C94.798 57.9628 94.7425 58.0013 94.681 58.0276C92.5612 58.9511 90.2833 59.4577 87.9719 59.5197V59.5197Z" fill="#231F20"/>
</g>
<path id="Vector_25" d="M91.0068 65.7619C91.0068 65.7619 81.8718 66.513 77.1622 62.7981C77.1622 62.7981 81.1714 75.4856 89.5959 75.445L91.0068 65.7619Z" fill="#231F20"/>
<path id="Vector_26" d="M89.535 75.9525C80.8669 75.9525 76.8272 63.4782 76.6547 62.9504C76.6248 62.8463 76.6283 62.7355 76.6647 62.6335C76.7012 62.5315 76.7686 62.4436 76.8577 62.382C76.9432 62.3153 77.0486 62.2791 77.1571 62.2791C77.2656 62.2791 77.3709 62.3153 77.4565 62.382C81.9936 65.9243 90.8545 65.2443 90.9459 65.2341C91.0214 65.2288 91.0972 65.2405 91.1677 65.2683C91.2382 65.2961 91.3016 65.3393 91.3532 65.3948C91.4047 65.4503 91.4432 65.5166 91.4659 65.5889C91.4885 65.6612 91.4946 65.7377 91.4838 65.8127L90.073 75.5059C90.0512 75.6322 89.985 75.7466 89.8864 75.8285C89.7878 75.9104 89.6632 75.9544 89.535 75.9525V75.9525ZM78.167 64.077C79.4561 67.254 83.1101 74.6127 89.1392 74.9274L90.3876 66.31C88.4388 66.3912 82.43 66.4521 78.1873 64.077H78.167Z" fill="#231F20"/>
<path id="Vector_27" d="M47.4226 68.0456C28.6756 65.7111 11.0755 145.297 21.3067 152.859C37.2625 164.664 85.9622 148.545 85.9622 148.545L81.0902 127.545C81.0902 127.545 45.9407 129.22 45.3013 122.003C44.6618 114.786 64.9415 80.9565 62.0995 76.0236C59.2575 71.0907 47.4226 68.0456 47.4226 68.0456Z" fill="#844ADB"/>
<path id="Vector_28" d="M112.88 128.134C112.768 128.137 112.659 128.098 112.574 128.025C112.49 127.951 112.436 127.849 112.423 127.738C110.008 110.767 104.709 82.347 102.994 80.6824C102.91 80.5951 102.864 80.4789 102.864 80.3581C102.865 80.2373 102.912 80.1214 102.996 80.0347C103.08 79.9479 103.195 79.8972 103.315 79.8931C103.436 79.8889 103.554 79.9317 103.643 80.0125C105.846 82.1542 111.51 114.756 113.337 127.606C113.354 127.728 113.322 127.853 113.248 127.952C113.174 128.051 113.063 128.116 112.941 128.134H112.88Z" fill="#231F20"/>
<path id="Vector_29" d="M94.9449 168.287L62.5867 159.223L122.015 148.048L154.18 161.527L94.9449 168.287Z" fill="white"/>
<path id="Vector_30" d="M94.945 168.825C94.9015 168.835 94.8565 168.835 94.813 168.825L62.4548 159.69C62.3202 159.69 62.1911 159.636 62.096 159.541C62.0008 159.446 61.9473 159.317 61.9473 159.182C61.9473 159.048 62.0008 158.919 62.096 158.824C62.1911 158.728 62.3202 158.675 62.4548 158.675L121.883 147.51C121.975 147.48 122.075 147.48 122.167 147.51L154.333 160.989C154.436 161.033 154.521 161.109 154.576 161.206C154.631 161.304 154.653 161.416 154.637 161.527C154.622 161.639 154.57 161.743 154.489 161.822C154.408 161.901 154.303 161.951 154.191 161.964L95.0059 168.825H94.945ZM64.8198 159.355L94.9856 167.81L152.191 161.284L121.954 148.616L64.8198 159.355Z" fill="#231F20"/>
<path id="Vector_31" d="M75.8528 134.802C82.9578 135.584 89.5451 136.091 96.1528 138.862C99.9286 140.448 103.495 142.493 106.77 144.952C108.439 146.136 109.998 147.468 111.429 148.931C112.565 150.169 112.2 151.377 110.292 150.778C108.073 150.083 105.972 149.057 104.06 147.733C108.631 151.463 112.683 155.788 116.108 160.593C116.493 161.141 116.869 161.923 116.412 162.41C115.955 162.897 114.94 162.41 114.382 161.903L104.344 152.382C107.001 154.675 109.261 157.391 111.033 160.421C111.286 160.857 111.53 161.436 111.266 161.832C110.82 162.573 109.683 162.014 109.074 161.395C106.067 158.359 103.333 155.065 100.903 151.55L106.323 159.67C106.272 159.819 106.191 159.958 106.086 160.076C105.981 160.194 105.854 160.291 105.711 160.36C105.569 160.429 105.414 160.469 105.256 160.477C105.098 160.486 104.94 160.463 104.79 160.411C104.194 160.164 103.677 159.757 103.298 159.233L96.7313 151.692L100.609 157.031C101.218 157.863 101.827 159.061 101.126 159.842C100.426 160.624 98.8425 159.842 97.9493 159.051C94.3566 155.772 90.4112 152.902 86.1855 150.494C84.6528 149.591 83.3435 148.363 81.6484 147.845C79.2124 147.094 76.1674 147.195 73.6299 146.911" fill="white"/>
<g id="rightHand">
<path id="Vector_32" d="M115.925 163.1C115.247 163.024 114.616 162.715 114.139 162.227L110.891 159.182C111.104 159.517 111.317 159.863 111.51 160.197C111.715 160.462 111.845 160.777 111.887 161.109C111.928 161.442 111.878 161.779 111.743 162.085C111.652 162.242 111.526 162.375 111.374 162.473C111.223 162.572 111.05 162.634 110.87 162.654C110.486 162.649 110.108 162.564 109.758 162.405C109.409 162.246 109.096 162.016 108.84 161.73C108.17 161.06 107.521 160.38 106.881 159.7C106.886 159.737 106.886 159.775 106.881 159.812C106.843 160 106.765 160.177 106.653 160.333C106.541 160.489 106.398 160.619 106.232 160.715C106.013 160.846 105.769 160.931 105.516 160.964C105.263 160.997 105.005 160.978 104.76 160.908C104.077 160.64 103.485 160.182 103.055 159.588L101.857 158.218C102.007 158.549 102.059 158.915 102.009 159.274C101.959 159.634 101.807 159.971 101.573 160.248C101.427 160.412 101.249 160.544 101.05 160.636C100.851 160.729 100.635 160.78 100.416 160.786C99.3559 160.67 98.3744 160.173 97.655 159.385C94.0976 156.125 90.1817 153.278 85.9825 150.9C85.4649 150.596 84.9675 150.25 84.4803 149.885C83.5936 149.193 82.6038 148.645 81.547 148.261C79.7772 147.813 77.9622 147.568 76.137 147.53C75.2641 147.48 74.4115 147.429 73.6097 147.348C73.4874 147.332 73.3761 147.269 73.3 147.172C73.224 147.075 73.1893 146.952 73.2037 146.83C73.21 146.77 73.2282 146.712 73.2572 146.658C73.2862 146.605 73.3254 146.559 73.3726 146.521C73.4198 146.483 73.474 146.455 73.5322 146.438C73.5903 146.422 73.6511 146.417 73.7112 146.424C74.5029 146.505 75.3352 146.556 76.1878 146.607C78.0885 146.643 79.9788 146.898 81.821 147.368C82.9651 147.786 84.0396 148.375 85.0081 149.114C85.475 149.449 85.9521 149.773 86.4494 150.068C90.7061 152.487 94.6792 155.374 98.2945 158.675C98.8435 159.233 99.5533 159.606 100.324 159.741C100.419 159.737 100.512 159.715 100.597 159.675C100.682 159.635 100.759 159.578 100.822 159.507C101.37 158.908 100.619 157.741 100.274 157.264L96.3964 151.935C96.3602 151.889 96.3335 151.836 96.318 151.779C96.3024 151.722 96.2983 151.662 96.3058 151.604C96.3134 151.545 96.3325 151.489 96.3619 151.438C96.3914 151.387 96.4307 151.342 96.4776 151.306C96.563 151.222 96.6778 151.176 96.7973 151.176C96.9169 151.176 97.0317 151.222 97.1171 151.306L103.694 158.848C104.015 159.297 104.454 159.648 104.963 159.863C105.083 159.896 105.209 159.905 105.333 159.89C105.456 159.874 105.576 159.834 105.684 159.771C105.748 159.737 105.804 159.689 105.846 159.629L100.558 151.682C100.489 151.581 100.464 151.457 100.486 151.337C100.509 151.217 100.579 151.111 100.68 151.042C100.781 150.974 100.905 150.948 101.025 150.971C101.145 150.993 101.251 151.063 101.319 151.164C103.738 154.654 106.455 157.928 109.439 160.949C109.77 161.311 110.22 161.542 110.708 161.598C110.748 161.597 110.787 161.585 110.821 161.564C110.855 161.542 110.883 161.512 110.901 161.476C111.012 161.304 110.901 160.979 110.667 160.532C109.445 158.441 107.984 156.5 106.313 154.747L104.05 152.595C103.976 152.508 103.937 152.397 103.94 152.284C103.943 152.17 103.987 152.061 104.064 151.977C104.141 151.894 104.246 151.842 104.36 151.83C104.473 151.819 104.586 151.849 104.679 151.915C105.481 152.605 106.242 153.326 106.973 154.087L114.727 161.446C115.029 161.788 115.443 162.012 115.895 162.075C115.936 162.077 115.977 162.068 116.014 162.051C116.051 162.033 116.083 162.007 116.108 161.974C116.341 161.73 116.108 161.182 115.773 160.735C112.374 155.966 108.353 151.671 103.816 147.967C103.733 147.888 103.682 147.781 103.672 147.667C103.663 147.553 103.696 147.439 103.765 147.347C103.834 147.256 103.934 147.193 104.046 147.17C104.159 147.148 104.276 147.168 104.374 147.226C106.241 148.525 108.294 149.531 110.464 150.21C111.175 150.433 111.55 150.342 111.621 150.21C111.692 150.078 111.621 149.631 111.124 149.104C109.716 147.658 108.176 146.347 106.526 145.186C103.283 142.753 99.751 140.731 96.0107 139.167C90.0527 136.68 84.0946 136.04 77.7407 135.36L75.7615 135.137C75.7013 135.131 75.6431 135.113 75.59 135.084C75.537 135.055 75.4902 135.015 75.4524 134.968C75.4147 134.921 75.3867 134.867 75.37 134.809C75.3534 134.751 75.3484 134.69 75.3555 134.63C75.3618 134.57 75.3799 134.511 75.4089 134.458C75.4379 134.405 75.4772 134.358 75.5244 134.321C75.5716 134.283 75.6258 134.255 75.684 134.238C75.7421 134.222 75.8029 134.217 75.863 134.224L77.893 134.437C84.2773 135.127 90.2963 135.777 96.3761 138.314C100.187 139.893 103.787 141.938 107.095 144.404C108.791 145.611 110.374 146.97 111.824 148.464C112.555 149.256 112.779 150.119 112.413 150.697C112.2 151.022 111.632 151.509 110.2 151.062C109.375 150.81 108.564 150.508 107.775 150.159C111.02 153.196 113.954 156.548 116.534 160.167C117.234 161.182 117.326 162.004 116.808 162.573C116.697 162.695 116.563 162.793 116.413 162.861C116.262 162.929 116.1 162.965 115.935 162.968L115.925 163.1Z" fill="#231F20"/>
</g>
<g id="laptop">
<path id="Vector_33" d="M154.18 161.527L168.989 121.891L108.505 123.089L94.9449 168.287L154.18 161.527Z" fill="white"/>
</g>
<path id="Vector_34" d="M94.9449 168.825C94.871 168.826 94.7978 168.81 94.731 168.778C94.6642 168.746 94.6054 168.7 94.5592 168.642C94.506 168.578 94.4691 168.503 94.4514 168.421C94.4337 168.34 94.4359 168.256 94.4577 168.175L108.018 122.977C108.051 122.875 108.114 122.786 108.2 122.72C108.285 122.655 108.388 122.617 108.495 122.612L168.979 121.414C169.062 121.413 169.144 121.432 169.218 121.469C169.292 121.506 169.357 121.56 169.405 121.627C169.45 121.696 169.478 121.773 169.488 121.854C169.499 121.935 169.491 122.017 169.466 122.094L154.657 161.679C154.624 161.769 154.567 161.848 154.492 161.907C154.416 161.966 154.326 162.003 154.231 162.014L95.0058 168.825H94.9449ZM108.891 123.617L95.696 167.729L153.856 161.091L168.289 122.439L108.891 123.617Z" fill="#231F20"/>
<path id="Vector_35" d="M150.953 161.893C150.953 161.893 167.365 175.22 161.6 187.44C155.835 199.661 50.965 213.627 50.965 213.627L46.2452 197.651C46.2452 197.651 128.511 155.63 150.953 161.893Z" fill="#231F20"/>
<path id="Vector_36" d="M50.965 214.135C50.8556 214.133 50.7495 214.097 50.662 214.031C50.5745 213.965 50.51 213.874 50.4778 213.769L45.7581 197.793C45.722 197.681 45.7278 197.559 45.7745 197.451C45.8211 197.343 45.9055 197.255 46.0118 197.204C46.2148 197.093 66.8498 186.588 89.9715 176.965C121.081 164.024 141.635 158.787 151.054 161.405C151.125 161.425 151.191 161.459 151.247 161.507C154.111 163.94 156.655 166.727 158.819 169.799C163.346 176.316 164.442 182.487 161.986 187.663C156.119 199.985 55.3194 213.556 51.0361 214.124L50.965 214.135ZM46.8441 197.895L51.3304 213.038C58.6587 212.023 155.622 198.646 161.072 187.207C166.431 175.92 151.937 163.364 150.679 162.339C129.343 156.645 52.995 194.85 46.905 197.915L46.8441 197.895Z" fill="#231F20"/>
<path id="Vector_37" d="M40.815 155.772C40.815 155.772 122.248 188.699 142.437 197.387L130.703 215.515C130.703 215.515 55.5122 214.043 33.9536 195.154C12.395 176.265 13.8262 144.82 40.815 155.772Z" fill="#231F20"/>
<path id="Vector_38" d="M130.703 216.043C130.521 216.043 111.632 215.647 90.3571 212.947C61.7341 209.303 42.6521 203.457 33.6288 195.55C22.342 185.664 14.4351 168.307 20.6469 158.228C22.6769 154.879 28.097 150.058 41.0281 155.295C41.8401 155.63 122.695 188.333 142.66 196.91C142.728 196.938 142.789 196.98 142.838 197.035C142.887 197.089 142.924 197.154 142.944 197.225C142.965 197.296 142.97 197.371 142.959 197.444C142.949 197.518 142.923 197.588 142.883 197.651L131.15 215.809C131.102 215.884 131.036 215.944 130.958 215.985C130.879 216.026 130.792 216.046 130.703 216.043ZM30.8173 154.006C26.6456 154.006 23.4483 155.61 21.4995 158.756C16.7087 166.541 20.6977 182.883 34.2885 194.789C54.8017 212.764 125.364 214.896 130.429 215.018L141.696 197.61C120.848 188.678 41.4443 156.564 40.6323 156.239C37.5323 154.878 34.2011 154.12 30.8173 154.006Z" fill="#231F20"/>
<path id="Vector_39" d="M154.495 145.703C154.583 146.172 154.785 146.611 155.084 146.982L156.667 149.347C156.609 149.103 156.499 148.874 156.343 148.677C156.187 148.48 155.99 148.32 155.765 148.208C155.54 148.096 155.294 148.034 155.043 148.027C154.792 148.021 154.542 148.069 154.312 148.17C153.863 148.413 153.489 148.776 153.233 149.218C152.977 149.661 152.848 150.166 152.861 150.677C152.906 151.698 153.148 152.7 153.571 153.63C154.698 156.554 157.246 160.827 160.93 158.614C163.427 157.112 164.117 151.814 164.472 149.175C165.173 143.978 163.579 137.299 156.901 138.314C157.093 140.873 158.048 143.316 159.641 145.328C158.555 144.272 154.16 142.638 154.495 145.703Z" fill="white"/>
<path id="Vector_40" d="M158.89 159.69C158.482 159.693 158.077 159.624 157.692 159.487C155.287 158.665 153.785 155.569 153.104 153.793C152.662 152.807 152.41 151.746 152.364 150.667C152.347 150.067 152.501 149.474 152.809 148.958C153.116 148.442 153.563 148.025 154.099 147.754C154.348 147.64 154.618 147.582 154.891 147.581L154.668 147.246C154.321 146.81 154.091 146.293 153.998 145.744C153.917 145.341 153.973 144.922 154.157 144.555C154.341 144.187 154.642 143.891 155.013 143.714C156.053 143.393 157.177 143.476 158.159 143.947C157.184 142.243 156.601 140.343 156.454 138.385C156.447 138.268 156.484 138.153 156.557 138.061C156.63 137.969 156.734 137.908 156.85 137.888C157.866 137.666 158.92 137.694 159.923 137.969C160.925 138.245 161.846 138.761 162.605 139.471C164.99 141.826 165.386 146.069 164.95 149.266C164.554 152.189 163.843 157.437 161.184 159.04C160.496 159.469 159.701 159.694 158.89 159.69V159.69ZM154.952 148.525C154.788 148.523 154.626 148.554 154.475 148.616C154.105 148.823 153.8 149.128 153.592 149.496C153.385 149.865 153.283 150.284 153.297 150.707C153.337 151.669 153.565 152.614 153.967 153.488C154.475 154.788 155.875 157.904 158.027 158.634C158.471 158.776 158.942 158.815 159.403 158.746C159.864 158.677 160.303 158.504 160.687 158.239C162.97 156.868 163.66 151.712 163.995 149.236C164.412 146.191 164.077 142.232 161.965 140.101C161.366 139.537 160.646 139.118 159.859 138.877C159.072 138.636 158.241 138.579 157.428 138.71C157.69 141.02 158.593 143.211 160.037 145.033C160.111 145.125 160.147 145.241 160.138 145.358C160.128 145.475 160.074 145.585 159.986 145.663C159.9 145.744 159.785 145.789 159.666 145.789C159.548 145.789 159.433 145.744 159.347 145.663C158.667 144.993 156.424 144.039 155.419 144.526C155.195 144.627 154.911 144.861 154.982 145.653C155.071 146.044 155.244 146.411 155.49 146.728L156.342 147.987C156.566 148.132 156.755 148.324 156.895 148.551C157.035 148.777 157.124 149.032 157.154 149.296C157.165 149.4 157.141 149.504 157.086 149.592C157.031 149.681 156.948 149.748 156.85 149.784C156.753 149.818 156.647 149.819 156.549 149.786C156.451 149.753 156.368 149.688 156.312 149.601L155.683 148.667C155.455 148.557 155.204 148.508 154.952 148.525Z" fill="#231F20"/>
<path id="Vector_41" d="M131.627 193.632C131.563 193.641 131.498 193.641 131.434 193.632C129.658 192.941 87.6776 176.691 78.2178 170.896C78.1001 170.822 78.016 170.705 77.9837 170.571C77.9515 170.436 77.9735 170.294 78.0452 170.175C78.0806 170.116 78.1275 170.064 78.1831 170.023C78.2388 169.982 78.302 169.953 78.3692 169.937C78.4363 169.921 78.506 169.918 78.5741 169.93C78.6423 169.941 78.7075 169.966 78.7659 170.002C88.1445 175.747 131.373 192.485 131.81 192.647C131.94 192.697 132.045 192.797 132.103 192.924C132.16 193.052 132.164 193.197 132.114 193.327C132.072 193.42 132.003 193.499 131.917 193.553C131.83 193.607 131.729 193.635 131.627 193.632Z" fill="white"/>
<path id="Vector_42" d="M82.6635 127.352C91.9185 127.352 99.4211 120.249 99.4211 111.488C99.4211 102.726 91.9185 95.6232 82.6635 95.6232C73.4085 95.6232 65.9058 102.726 65.9058 111.488C65.9058 120.249 73.4085 127.352 82.6635 127.352Z" fill="#231F20"/>
<path id="Vector_43" d="M82.6634 127.849C73.1427 127.849 65.4084 120.511 65.4084 111.488C65.4084 102.464 73.1529 95.1157 82.6634 95.1157C92.174 95.1157 99.9184 102.464 99.9184 111.488C99.9184 120.511 92.1841 127.849 82.6634 127.849ZM82.6634 96.1307C73.701 96.1307 66.4234 103.023 66.4234 111.488C66.4234 119.953 73.7111 126.834 82.6634 126.834C91.6157 126.834 98.9034 119.953 98.9034 111.488C98.9034 103.023 91.6259 96.1307 82.6634 96.1307Z" fill="#231F20"/>
<g id="leftCode">
<path id="Vector_44" d="M73.8228 116.644L69.7628 114.269V111.132L73.8228 108.757C75.1762 107.979 76.5295 107.187 77.8828 106.382V110.178C77.1622 110.625 76.4415 111.061 75.7209 111.478C75.0002 111.894 74.2897 112.32 73.5589 112.777L75.7209 113.974L77.8828 115.182V119.019L73.8228 116.644Z" fill="white"/>
</g>
<path id="Vector_45" d="M79.0297 120.024L83.8104 101.835L86.3073 102.962L81.5063 121.12L79.0297 120.024Z" fill="white"/>
<g id="rightCode">
<path id="Vector_46" d="M91.565 108.757L95.625 111.132V114.269L91.565 116.644L87.505 119.019V115.182L89.667 113.974L91.8289 112.777C91.1082 112.32 90.3876 111.884 89.667 111.478C88.9463 111.072 88.2358 110.625 87.505 110.178V106.382L91.565 108.757Z" fill="white"/>
</g>
<g id="rightArm">
<path id="Vector_47" d="M46.5198 154.904C46.3852 154.912 46.2529 154.866 46.1521 154.776C46.0512 154.687 45.99 154.561 45.9819 154.427C45.9738 154.292 46.0195 154.16 46.109 154.059C46.1985 153.958 46.3243 153.897 46.4589 153.889L70.8189 150.935L74.6861 131.437L43.4748 128.798C43.4002 128.793 43.3277 128.771 43.2627 128.734C43.1977 128.697 43.1418 128.646 43.0993 128.585C43.0537 128.525 43.0227 128.455 43.0086 128.381C42.9945 128.307 42.9978 128.231 43.0181 128.158L55.8477 80.3924C55.8827 80.2578 55.9697 80.1426 56.0896 80.0722C56.2096 80.0018 56.3525 79.9819 56.4871 80.0169C56.6217 80.0519 56.7369 80.1389 56.8074 80.2588C56.8778 80.3787 56.8977 80.5217 56.8627 80.6563L44.1853 127.844L75.3154 130.422C75.3868 130.43 75.4559 130.451 75.5186 130.486C75.5814 130.521 75.6365 130.568 75.6808 130.625C75.7233 130.682 75.7533 130.748 75.7691 130.818C75.7848 130.888 75.7858 130.96 75.7721 131.031L71.7121 151.442C71.6901 151.547 71.6363 151.642 71.5582 151.715C71.4801 151.787 71.3814 151.834 71.2757 151.848L46.5198 154.843V154.904Z" fill="#231F20"/>
</g>
<path id="Vector_48" d="M182.062 17.793H131.454V23.0304H182.062V17.793Z" fill="#E6E7E8"/>
<path id="Vector_49" d="M238.557 17.793H187.949V23.0304H238.557V17.793Z" fill="#E6E7E8"/>
<path id="Vector_50" d="M182.062 26.7656H152.353V32.003H182.062V26.7656Z" fill="#844ADB"/>
<path id="Vector_51" d="M232.904 26.7656H187.949V32.003H232.904V26.7656Z" fill="#E6E7E8"/>
<path id="Vector_52" d="M182.062 35.7484H144.619V40.9858H182.062V35.7484Z" fill="#E6E7E8"/>
<path id="Vector_53" d="M209.061 35.7484H187.949V40.9858H209.061V35.7484Z" fill="#E6E7E8"/>
<path id="Vector_54" d="M182.073 44.7209H160.23V49.9583H182.073V44.7209Z" fill="#E6E7E8"/>
<path id="Vector_55" d="M229.301 44.7209H187.949V49.9583H229.301V44.7209Z" fill="#844ADB"/>
<path id="Vector_56" d="M182.062 53.7037H175.11V58.9411H182.062V53.7037Z" fill="#844ADB"/>
<path id="Vector_57" d="M215.73 53.7037H187.949V58.9411H215.73V53.7037Z" fill="#E6E7E8"/>
<path id="Vector_58" d="M181.189 90.6091H134.682V96.6078H181.189V90.6091Z" fill="#844ADB"/>
<path id="Vector_59" d="M217.222 90.6091H188.66V96.6078H217.222V90.6091Z" fill="#E6E7E8"/>
<path id="Vector_60" d="M181.179 100.881H143.421V106.88H181.179V100.881Z" fill="#E6E7E8"/>
<path id="Vector_61" d="M230.244 100.881H188.66V106.88H230.244V100.881Z" fill="#E6E7E8"/>
<path id="Vector_62" d="M181.179 111.163H162.3V117.161H181.179V111.163Z" fill="#E6E7E8"/>
<path id="Vector_63" d="M238.111 111.163H188.66V117.161H238.111V111.163Z" fill="#E6E7E8"/>
<path id="Vector_64" d="M181.179 121.445H174.105V127.443H181.179V121.445Z" fill="#E6E7E8"/>
<path id="Vector_65" d="M241.217 121.445H188.66V127.443H241.217V121.445Z" fill="#844ADB"/>
<path id="Vector_66" d="M223.962 131.717H188.66V137.715H223.962V131.717Z" fill="#E6E7E8"/>
<g id="leftCode_2">
<path id="Vector_67" d="M206.554 77.5968L202.738 76.0743V74.0443L206.554 72.5218L210.371 70.9993V73.415C209.681 73.7093 209 73.9834 208.341 74.2473C207.681 74.5112 206.981 74.7852 206.311 75.0796L208.341 75.851L210.371 76.6224V79.0787L206.554 77.5968Z" fill="#E6E7E8"/>
</g>
<path id="Vector_68" d="M211.497 79.7588L216.024 68.1167L218.399 68.8272L213.842 80.52L211.497 79.7588Z" fill="#E6E7E8"/>
<g id="rightCode_2">
<path id="Vector_69" d="M223.332 72.5523C224.601 73.0598 225.88 73.5673 227.149 74.0748V76.1048L223.332 77.6273L219.516 79.1498V76.663L221.546 75.8916L223.576 75.1202C222.886 74.8259 222.206 74.5518 221.546 74.2879C220.886 74.024 220.186 73.75 219.516 73.4556V71.0298L223.332 72.5523Z" fill="#E6E7E8"/>
</g>
<path id="Vector_70" d="M132.784 5.3085C132.783 5.07321 132.835 4.84067 132.936 4.62845C133.025 4.41225 133.16 4.2182 133.332 4.06005C133.501 3.90384 133.697 3.77999 133.911 3.69465C134.139 3.60082 134.384 3.55254 134.631 3.55255C134.865 3.55469 135.096 3.60299 135.312 3.69465C135.521 3.78243 135.713 3.90608 135.88 4.06005C136.042 4.22419 136.173 4.41688 136.266 4.62845C136.359 4.84289 136.408 5.07444 136.408 5.3085C136.408 5.54584 136.359 5.78069 136.266 5.9987C136.17 6.19967 136.04 6.38188 135.88 6.53665C135.54 6.85365 135.096 7.03434 134.631 7.04415C134.384 7.04416 134.139 6.99589 133.911 6.90205C133.695 6.8206 133.498 6.69629 133.332 6.53665C133.163 6.38774 133.028 6.20429 132.936 5.9987C132.835 5.78294 132.783 5.54707 132.784 5.3085V5.3085ZM132.784 11.2564C132.789 11.024 132.84 10.7949 132.934 10.5823C133.028 10.3697 133.163 10.178 133.332 10.0181C133.498 9.85526 133.695 9.72752 133.911 9.64255C134.14 9.55218 134.385 9.50737 134.631 9.5106C134.865 9.50926 135.096 9.55411 135.312 9.64255C135.523 9.73011 135.716 9.85762 135.88 10.0181C136.042 10.1785 136.173 10.3678 136.266 10.5764C136.359 10.7926 136.407 11.0258 136.407 11.2615C136.407 11.4971 136.359 11.7303 136.266 11.9466C136.173 12.1521 136.042 12.3381 135.88 12.4947C135.713 12.6487 135.521 12.7723 135.312 12.8601C135.096 12.9485 134.865 12.9934 134.631 12.9921C134.385 12.9953 134.14 12.9505 133.911 12.8601C133.697 12.7748 133.501 12.6509 133.332 12.4947C133.161 12.344 133.026 12.1567 132.936 11.9466C132.834 11.7312 132.782 11.4951 132.784 11.2564V11.2564Z" fill="#E6E7E8"/>
<g id="leftBracket">
<path id="Vector_71" d="M192.05 176.092C192.451 176.113 192.848 175.999 193.177 175.768C193.461 175.554 193.593 175.108 193.593 174.418V171.271C193.592 170.75 193.66 170.231 193.796 169.728C193.922 169.26 194.136 168.819 194.425 168.429C194.72 168.055 195.095 167.75 195.521 167.536C196.029 167.299 196.585 167.184 197.145 167.201H199.429V170.469H198.627C198.444 170.451 198.26 170.483 198.093 170.562C197.927 170.641 197.785 170.763 197.683 170.916C197.508 171.225 197.42 171.576 197.429 171.931V175.138C197.441 175.545 197.368 175.949 197.216 176.326C197.094 176.617 196.923 176.885 196.709 177.118C196.522 177.318 196.298 177.48 196.049 177.595C195.85 177.699 195.633 177.765 195.41 177.787V177.787C195.63 177.828 195.845 177.896 196.049 177.99C196.297 178.097 196.521 178.253 196.709 178.447C197.197 178.988 197.456 179.698 197.429 180.426V183.644C197.417 183.999 197.505 184.351 197.683 184.659C197.784 184.814 197.925 184.938 198.092 185.019C198.258 185.099 198.443 185.133 198.627 185.116H199.429V188.384H197.145C196.585 188.401 196.029 188.286 195.521 188.049C195.095 187.835 194.72 187.531 194.425 187.156C194.138 186.765 193.924 186.325 193.796 185.857C193.661 185.35 193.593 184.828 193.593 184.304V181.157C193.628 180.917 193.609 180.672 193.537 180.44C193.465 180.208 193.342 179.995 193.177 179.817C192.848 179.586 192.451 179.472 192.05 179.493V176.092Z" fill="#E6E7E8"/>
</g>
<g id="rightBracket">
<path id="Vector_72" d="M227.108 179.472C226.704 179.452 226.304 179.566 225.971 179.797C225.808 179.976 225.686 180.189 225.614 180.421C225.542 180.652 225.522 180.897 225.555 181.137V184.283C225.555 184.808 225.487 185.33 225.352 185.836C225.228 186.306 225.014 186.747 224.723 187.136C224.433 187.515 224.057 187.821 223.627 188.029C223.119 188.266 222.563 188.38 222.003 188.364H219.719V185.065H220.531C220.713 185.08 220.896 185.046 221.061 184.965C221.225 184.885 221.365 184.761 221.465 184.608C221.643 184.301 221.731 183.949 221.718 183.593V180.376C221.708 179.973 221.781 179.572 221.932 179.198C222.056 178.903 222.231 178.631 222.449 178.396C222.634 178.203 222.854 178.048 223.099 177.94C223.307 177.847 223.525 177.779 223.748 177.737V177.737C223.522 177.713 223.302 177.648 223.099 177.544C222.853 177.43 222.632 177.268 222.449 177.067C222.229 176.838 222.053 176.569 221.932 176.275C221.78 175.898 221.707 175.494 221.718 175.088V171.87C221.728 171.515 221.64 171.164 221.465 170.855C221.363 170.704 221.223 170.582 221.059 170.504C220.895 170.425 220.712 170.392 220.531 170.408H219.719V167.201H222.003C222.563 167.184 223.119 167.299 223.627 167.536C224.057 167.744 224.433 168.05 224.723 168.429C225.016 168.816 225.23 169.258 225.352 169.728C225.488 170.231 225.556 170.75 225.555 171.271V174.418C225.521 174.659 225.541 174.906 225.613 175.139C225.685 175.372 225.807 175.587 225.971 175.768C226.304 175.999 226.704 176.113 227.108 176.092V179.472Z" fill="#E6E7E8"/>
</g>
</g>
</svg>
